<svg id="Capa_1" data-name="Capa 1" xmlns="http://www.w3.org/2000/svg" viewBox="0 0 509.9 488.54"><defs><style>.cls-1{fill:#fec007;}</style></defs><path class="cls-1" d="M794.94,915.2c-6.46,16.14-21.37,24.42-33.37,35.23-27.74,25-56,49.36-84.18,73.88-2.34,2-2.77,3.81-2.09,6.78q15.88,69.27,31.51,138.58c2.73,12-.06,22.26-10.09,29.59s-20.67,7-31.22.68q-60.6-36.27-121.17-72.6c-3.09-1.86-5.29-2-8.45-.06-40.2,24.18-80.63,48-120.71,72.38-18.27,11.12-37.38,1.33-41.91-14.53a30,30,0,0,1-.17-15.23q15.62-68.55,31.32-137.09c1-4.18.37-6.76-3-9.72C366.06,992.4,331,961.46,295.73,930.66c-9.27-8.12-13-18-9.23-29.85,3.65-11.34,12-17.61,23.91-18.73q36.64-3.41,73.3-6.72c23.12-2.1,46.24-4.24,69.37-6.18,3.5-.29,4.63-2.29,5.79-5q27.57-64.7,55.21-129.36c5-11.68,13.27-18.69,26.14-18.62,12.65.06,20.83,7.06,25.71,18.53,18.15,42.69,36.54,85.27,54.51,128,2.11,5,5,6.27,9.9,6.71q69.87,6.13,139.69,12.72c12.87,1.22,20.66,8.4,24.1,20.93a4.27,4.27,0,0,0,.81,1.14Z" transform="translate(-285.04 -716.18)"/></svg>